<svg width="50" height="50" viewBox="0 0 50 50" fill="none" xmlns="http://www.w3.org/2000/svg">
<circle cx="25" cy="25" r="25" fill="#3A3A3C"/>
<path fill-rule="evenodd" clip-rule="evenodd" d="M25 13C27.9116 13 30.5813 14.0372 32.6595 15.7626L28.7721 18.9453C27.6782 18.2615 26.3852 17.8666 25 17.8666C21.9641 17.8666 19.371 19.7635 18.3409 22.4366L18.2516 22.6817C18.0024 23.4083 17.8665 24.1883 17.8665 24.9999C17.8666 25.7707 17.9888 26.5132 18.2154 27.2085L18.3189 27.5036C19.3322 30.2082 21.9413 32.1335 24.9999 32.1335C26.3146 32.1335 27.5463 31.7781 28.6032 31.1576C30.0065 30.3347 31.103 29.047 31.6806 27.5055H25.2639V22.7582H36.7904C36.9282 23.4841 37 24.2338 37 25C37 25.8591 36.9097 26.6971 36.7376 27.5055C36.1789 30.1367 34.758 32.4487 32.785 34.1324L32.5125 34.3581C30.456 36.011 27.8437 37.0001 24.9999 37.0001C20.4301 37.0001 16.4569 34.4458 14.4301 30.6869C13.5176 28.9942 13 27.0578 13 24.9999C13 23.0101 13.4839 21.1336 14.3418 19.4813C16.3389 15.6308 20.3622 13 25 13Z" fill="#6E6F71"/>
</svg>
