<svg width="22" height="22" viewBox="0 0 22 22" fill="none" xmlns="http://www.w3.org/2000/svg">
<path fill-rule="evenodd" clip-rule="evenodd" d="M13.5299 8.47004L8.46992 13.53C7.81992 12.88 7.41992 11.99 7.41992 11C7.41992 9.02 9.0199 7.42004 10.9999 7.42004C11.9899 7.42004 12.8799 7.82004 13.5299 8.47004Z" stroke="#6E6F71" stroke-width="1.8" stroke-linecap="round" stroke-linejoin="round"/>
<path d="M4.59984 16.76C3.59984 15.9 2.68984 14.84 1.88984 13.59C0.989844 12.18 0.989844 9.81 1.88984 8.4C3.06984 6.55 4.50984 5.1 6.11984 4.13" stroke="#6E6F71" stroke-width="1.8" stroke-linecap="round" stroke-linejoin="round"/>
<path d="M16.82 4.76998C15.07 3.44998 13.07 2.72998 11 2.72998" stroke="#6E6F71" stroke-width="1.8" stroke-linecap="round" stroke-linejoin="round"/>
<path d="M7.41992 18.5301C8.55992 19.0101 9.7699 19.2701 10.9999 19.2701C14.5299 19.2701 17.8199 17.1901 20.1099 13.5901C21.0099 12.1801 21.0099 9.8101 20.1099 8.40005C19.7799 7.88005 19.4199 7.39005 19.0499 6.93005" stroke="#6E6F71" stroke-width="1.8" stroke-linecap="round" stroke-linejoin="round"/>
<path d="M14.5095 11.7C14.2495 13.11 13.0995 14.26 11.6895 14.52" stroke="#6E6F71" stroke-width="1.8" stroke-linecap="round" stroke-linejoin="round"/>
<path d="M8.47 13.53L1 21" stroke="#6E6F71" stroke-width="1.8" stroke-linecap="round" stroke-linejoin="round"/>
<path d="M20.9993 1L13.5293 8.47" stroke="#6E6F71" stroke-width="1.8" stroke-linecap="round" stroke-linejoin="round"/>
</svg>
