<svg width="50" height="50" viewBox="0 0 50 50" fill="none" xmlns="http://www.w3.org/2000/svg">
<circle cx="25" cy="25" r="25" fill="#3A3A3C"/>
<path fill-rule="evenodd" clip-rule="evenodd" d="M30.2198 18.6174C31.8503 18.6174 33.5768 19.5114 34.8053 21.0519C30.7778 23.2733 31.4303 29.0603 35.4998 30.6098L35.1231 31.4355L34.8982 31.8994C34.6751 32.3429 34.4473 32.7428 34.1217 33.2541L33.8324 33.6993L33.5856 34.0652L33.3245 34.4352L33.0494 34.8031C32.1558 35.9581 31.0526 36.9869 29.7669 36.9968C29.1423 37.0034 28.7032 36.841 28.2655 36.6446L27.9346 36.493C27.374 36.2366 26.7436 35.9798 25.6839 35.9858C24.7301 35.9905 24.1162 36.1993 23.5869 36.4263L23.0763 36.6524C22.6307 36.8465 22.1847 37.0059 21.5589 36.9999C20.0822 36.9872 18.8976 35.7616 17.9598 34.4559L17.6985 34.0816L17.4504 33.7088C14.6379 29.3993 14.3409 24.3398 16.0764 21.6489C17.3109 19.7379 19.2579 18.6204 21.0864 18.6204C21.9551 18.6204 22.6735 18.8441 23.3495 19.0828L23.921 19.2862C24.4871 19.4835 25.0446 19.6479 25.6614 19.6479C26.243 19.6479 26.7361 19.492 27.2482 19.3015L27.6942 19.1326C28.3779 18.875 29.1436 18.6174 30.2198 18.6174ZM29.7487 13C29.9632 14.458 29.3707 15.886 28.5877 16.8955C27.7508 17.98 26.3063 18.8185 24.9083 18.775C24.6533 17.3785 25.3073 15.9415 26.1023 14.974C26.9738 13.9075 28.4692 13.0885 29.7487 13Z" fill="#6E6F71"/>
</svg>
